<?xml version="1.0" standalone="no"?>
<!DOCTYPE svg PUBLIC "-//W3C//DTD SVG 20010904//EN"
 "http://www.w3.org/TR/2001/REC-SVG-20010904/DTD/svg10.dtd">
<svg version="1.0" xmlns="http://www.w3.org/2000/svg"
 width="883.000000pt" height="542.000000pt" viewBox="0 0 883.000000 542.000000"
 preserveAspectRatio="xMidYMid meet">
<metadata>
Created by potrace 1.16, written by Peter Selinger 2001-2019
</metadata>
<g transform="translate(0.000000,542.000000) scale(0.100000,-0.100000)"
fill="#000000" stroke="none">
<path d="M500 5349 c-75 -15 -183 -74 -244 -135 -69 -69 -113 -157 -129 -255
-9 -56 -11 -592 -7 -2265 l5 -2190 38 -77 c47 -96 121 -177 201 -221 120 -67
63 -64 1226 -68 957 -3 1060 -1 1106 13 171 56 291 174 346 338 21 62 22 88
26 438 3 325 1 375 -12 402 -17 31 -61 61 -91 61 -23 0 -72 -30 -82 -49 -4 -9
-10 -185 -13 -391 l-5 -375 -29 -62 c-36 -78 -94 -133 -172 -163 l-59 -24
-1020 3 c-809 3 -1028 6 -1063 16 -58 18 -114 58 -147 105 -52 74 -55 104 -55
482 l0 348 845 0 c465 0 845 -4 845 -8 0 -5 13 -29 30 -54 76 -115 256 -133
358 -35 49 47 74 103 80 177 6 87 -22 154 -90 215 l-50 45 -94 0 c-58 0 -107
-5 -127 -14 -39 -17 -88 -68 -114 -120 l-20 -38 -689 2 c-379 1 -754 5 -834 9
l-145 6 0 105 0 105 690 5 c457 4 700 9 721 17 55 19 91 42 145 91 96 86 82
82 285 82 l182 0 27 -45 c74 -128 263 -146 372 -36 97 96 96 264 0 359 -127
125 -324 86 -398 -80 l-11 -26 -202 -4 c-234 -4 -236 -4 -349 -105 -39 -36
-82 -69 -95 -74 -13 -5 -327 -9 -698 -9 l-675 0 3 115 3 115 525 3 c470 4 529
6 567 22 31 12 82 59 188 170 80 84 160 160 179 169 30 14 87 16 444 16 l410
0 12 -34 c13 -40 86 -111 135 -132 48 -20 141 -17 190 5 45 20 99 71 123 116
8 17 17 64 20 106 4 64 1 82 -18 120 -61 121 -176 173 -301 135 -61 -18 -94
-44 -134 -105 l-28 -41 -406 0 c-442 0 -470 -3 -566 -56 -59 -33 -165 -132
-255 -238 l-65 -76 -512 0 -513 0 2 1348 c3 1342 3 1347 24 1392 27 58 76 108
134 134 45 21 49 21 1105 18 616 -2 1075 -7 1097 -13 67 -17 130 -69 163 -133
l30 -60 5 -977 c3 -538 8 -980 12 -984 3 -4 42 -9 86 -12 77 -6 79 -5 85 18 4
13 7 454 7 979 0 1051 2 1012 -61 1131 -40 74 -128 158 -208 199 -122 61 -96
60 -1221 59 -564 -1 -1045 -5 -1070 -10z m1770 -49 c-91 -4 -166 -7 -168 -8
-2 -1 0 -6 3 -12 4 -6 -9 -10 -33 -10 -23 0 -45 -6 -52 -15 -7 -8 -16 -13 -20
-10 -4 3 -30 -2 -58 -10 -28 -9 -72 -16 -99 -17 -26 -1 -58 -8 -70 -16 -12 -7
-27 -11 -32 -8 -5 4 -12 2 -16 -4 -4 -6 29 -11 92 -12 54 -2 -217 -5 -602 -8
l-700 -5 -50 -23 c-63 -29 -100 -64 -133 -127 l-27 -50 -5 -725 c-3 -399 -7
-657 -9 -575 -2 83 -4 155 -6 160 -1 6 -3 60 -5 120 l-4 110 -6 -80 c-3 -44
-7 -71 -9 -60 l-2 20 -9 -20 c-5 -11 -9 -14 -9 -7 -1 6 -5 12 -10 12 -5 0 -7
-19 -5 -42 l3 -43 -8 38 c-9 40 -20 59 -23 36 0 -8 -4 6 -8 31 -6 40 -7 36
-10 -35 -1 -44 -6 -107 -10 -140 -4 -33 -8 203 -8 525 -1 356 2 610 8 650 6
36 24 92 40 125 55 113 132 182 249 222 l66 22 955 -1 c525 -1 881 -5 790 -8z
m651 -2699 c38 -39 39 -87 3 -130 -53 -63 -144 -22 -144 66 0 34 6 46 31 67
40 34 74 33 110 -3z m-300 -570 c21 -22 29 -39 29 -66 0 -27 -8 -44 -29 -66
-40 -39 -74 -38 -117 5 -37 37 -42 62 -19 106 30 58 89 67 136 21z m-357 -572
c31 -15 56 -65 49 -101 -7 -38 -47 -78 -77 -78 -32 0 -82 43 -89 76 -7 39 11
82 42 99 32 18 43 18 75 4z"/>
<path d="M1242 4947 c-25 -26 -27 -45 -11 -80 21 -46 47 -51 322 -55 143 -2
279 -1 304 3 83 12 121 85 70 133 -23 22 -28 22 -343 22 l-321 0 -21 -23z"/>
<path d="M675 4345 c-22 -8 -52 -28 -67 -45 l-28 -30 0 -656 0 -656 33 -33
c18 -18 52 -38 75 -45 30 -8 287 -10 910 -8 964 3 906 -1 970 72 17 20 34 47
38 60 8 33 -15 77 -53 101 -21 13 -34 30 -37 50 -3 17 -8 266 -11 555 -7 551
-8 563 -53 603 -51 46 -50 46 -917 46 -681 0 -827 -2 -860 -14z m1655 -377 c0
-123 3 -361 6 -530 l6 -308 -796 0 -796 0 0 318 c0 176 -3 414 -7 530 l-6 212
796 0 797 0 0 -222z"/>
<path d="M4470 4181 c-6 -13 -10 -178 -10 -468 l0 -448 -49 80 c-26 44 -95
159 -151 255 -57 96 -158 265 -224 375 l-121 199 -45 9 c-54 10 -239 1 -255
-13 -9 -7 -14 -186 -19 -681 -7 -604 -6 -673 9 -695 15 -23 19 -24 146 -24
l130 0 -3 480 c-2 264 -1 480 2 480 3 -1 39 -60 80 -132 41 -72 94 -163 116
-202 88 -151 292 -513 313 -553 11 -23 30 -47 40 -53 11 -5 82 -10 159 -10
118 0 141 2 146 16 3 9 6 323 6 698 0 517 -3 685 -12 694 -8 8 -51 12 -130 12
-106 0 -118 -2 -128 -19z m-599 -26 c16 -4 29 -12 29 -19 0 -7 8 -21 18 -32
17 -17 17 -20 3 -32 -13 -10 -13 -11 -1 -7 21 7 32 -4 53 -49 14 -30 15 -37 4
-27 -8 6 -20 25 -27 41 -7 17 -17 30 -22 30 -5 0 -6 -5 -2 -11 3 -6 -9 -3 -27
7 -31 15 -33 15 -20 1 7 -10 10 -17 6 -17 -4 0 -2 -7 5 -15 8 -9 21 -13 36 -9
24 6 34 -9 14 -21 -5 -3 -10 -2 -10 2 0 22 -40 6 -51 -20 -9 -20 -17 -27 -31
-24 -10 3 -18 1 -18 -4 0 -5 -5 -9 -11 -9 -6 0 -23 -13 -38 -29 -14 -16 -37
-31 -51 -34 -14 -2 -33 -8 -43 -12 -17 -7 -18 -3 -13 41 4 37 3 41 -3 19 -6
-19 -9 -23 -10 -11 -2 32 -12 11 -20 -41 -5 -34 -8 -4 -8 102 -1 82 3 157 7
165 6 11 31 16 105 18 53 2 109 0 126 -3z"/>
<path d="M6413 3869 c-210 -20 -346 -119 -402 -293 -25 -78 -33 -146 -32 -273
2 -276 97 -429 316 -513 82 -31 281 -35 365 -6 223 76 320 210 336 461 11 188
-24 350 -100 453 -54 73 -113 113 -218 145 -95 29 -163 36 -265 26z m172 -248
c91 -42 124 -111 132 -276 11 -221 -54 -338 -200 -362 -56 -9 -146 23 -187 66
-54 57 -70 115 -71 261 -1 184 33 269 125 311 54 25 148 25 201 0z"/>
<path d="M5245 3860 c-111 -28 -216 -93 -265 -165 -51 -74 -71 -140 -83 -274
-28 -322 52 -519 248 -612 34 -16 88 -34 120 -40 78 -15 365 -6 420 12 l40 14
3 114 3 113 -24 -5 c-68 -18 -286 -36 -332 -28 -101 17 -165 63 -185 134 -17
63 -11 92 20 93 201 10 331 14 453 15 197 1 192 -2 191 151 -3 265 -96 411
-301 473 -51 16 -254 19 -308 5z m260 -230 c47 -29 73 -76 84 -151 5 -35 8
-65 7 -65 0 -1 -94 -5 -208 -9 l-208 -7 0 51 c0 99 45 160 143 193 64 22 135
17 182 -12z"/>
<path d="M3925 2571 c-160 -47 -282 -144 -345 -275 -54 -113 -70 -202 -70
-395 0 -166 11 -244 50 -355 60 -173 205 -290 409 -332 164 -32 526 0 578 52
l23 23 0 354 c0 314 -2 356 -16 361 -9 3 -123 6 -254 6 -200 0 -240 -2 -250
-15 -13 -16 -10 -191 4 -214 5 -7 49 -11 132 -11 l124 0 0 -150 0 -150 -26 -6
c-14 -4 -78 -5 -143 -2 -103 3 -124 7 -174 32 -67 32 -107 77 -137 155 -32 80
-40 317 -15 420 33 134 110 221 228 256 83 25 228 19 465 -19 22 -3 22 -2 22
119 0 108 -2 124 -17 130 -93 39 -475 49 -588 16z"/>
<path d="M5071 2290 c-62 -13 -160 -61 -206 -101 -90 -80 -130 -186 -139 -379
-12 -232 18 -350 118 -457 66 -71 164 -126 255 -143 125 -23 431 -1 452 32 5
7 9 60 9 117 l0 103 -27 -5 c-16 -4 -92 -14 -169 -23 -132 -15 -146 -15 -199
1 -32 9 -71 26 -86 38 -38 27 -69 93 -69 144 l0 40 173 6 c94 4 238 7 319 7
182 0 178 -3 178 146 0 129 -14 195 -59 286 -27 56 -48 82 -86 111 -86 64
-142 80 -290 83 -71 2 -150 -1 -174 -6z m275 -228 c43 -32 63 -71 72 -141 8
-58 8 -61 -12 -62 -12 0 -30 -2 -41 -4 -11 -2 -95 -7 -187 -11 l-168 -7 0 39
c0 91 38 156 112 193 61 30 179 26 224 -7z"/>
<path d="M6075 2295 c-5 -2 -49 -6 -96 -10 l-86 -7 -7 -95 c-5 -66 -4 -99 4
-107 7 -7 65 -10 184 -8 278 6 327 -13 334 -131 l4 -62 -144 3 c-157 4 -291
-14 -358 -48 -101 -51 -147 -154 -136 -303 7 -106 29 -161 85 -216 79 -78 189
-111 365 -111 164 0 320 30 409 78 l47 25 0 341 c-1 352 -6 407 -45 489 -52
110 -199 168 -421 166 -71 0 -133 -2 -139 -4z m326 -602 c5 -5 8 -65 7 -138
l-3 -129 -50 -13 c-70 -19 -195 -10 -245 18 -51 29 -75 81 -67 147 10 85 28
107 102 126 33 8 246 -1 256 -11z"/>
<path d="M7752 2279 c-137 -40 -210 -138 -213 -286 -2 -98 15 -147 69 -205 65
-70 90 -82 284 -139 65 -19 118 -41 133 -55 51 -47 20 -124 -58 -145 -40 -11
-87 -10 -329 8 l-88 6 0 -109 c0 -60 4 -115 9 -122 10 -17 267 -34 376 -26
147 10 267 65 324 147 61 89 76 237 35 336 -35 83 -138 149 -300 190 -151 38
-194 64 -194 116 0 38 24 62 75 76 33 9 196 2 333 -16 l32 -4 0 113 0 114 -32
6 c-18 3 -112 8 -208 11 -157 4 -182 3 -248 -16z"/>
<path d="M7039 2274 c-70 -21 -141 -73 -164 -119 -19 -38 -20 -63 -23 -460 -2
-231 0 -430 3 -442 5 -22 9 -23 129 -23 120 0 124 1 130 23 3 12 6 185 6 385
0 241 4 370 11 384 21 39 71 50 201 42 l119 -7 -3 114 -3 114 -180 2 c-133 1
-192 -2 -226 -13z"/>
</g>
</svg>
